<?xml version="1.0" standalone="no"?><!DOCTYPE svg PUBLIC "-//W3C//DTD SVG 1.1//EN" "http://www.w3.org/Graphics/SVG/1.1/DTD/svg11.dtd"><svg t="1622357737480" class="icon" viewBox="0 0 1024 1024" version="1.1" xmlns="http://www.w3.org/2000/svg" p-id="4281" xmlns:xlink="http://www.w3.org/1999/xlink" width="200" height="200"><defs><style type="text/css"></style></defs><path d="M961.494778 163.055425 712.444901 8.538501c-20.49099-12.761994-48.420976-11.057995-67.262967 4.081998L511.969 119.792446 378.785066 12.636499c-18.763991-15.097993-46.776977-16.910992-67.191967-4.119998l-249.129877 154.559924c-33.058984 20.57199-36.794982 68.764966-6.564997 93.653954l115.608943 96.585952-94.004954 73.476964c-31.079985 23.968988-29.337986 72.402964 3.503998 93.986954L320.127095 679.33517c20.62699 13.590993 47.820976 12.570994 67.535967-2.314999l124.322939-95.727953 123.569939 95.653953c19.141991 14.733993 47.582977 15.754992 67.671967 2.348999l239.204882-158.550922c32.569984-21.687989 34.376983-69.647966 3.657998-93.810954l-93.731954-73.459964 115.553943-96.591952C998.26176 231.864391 994.735762 183.793415 961.494778 163.055425L961.494778 163.055425zM796.25686 386.209315l109.908946 86.148957L671.159921 628.134195l-109.562946-84.784958L796.25686 386.209315 796.25686 386.209315zM561.690975 157.273428l120.159941-96.660952 244.914879 151.954925L803.019856 316.050349 561.690975 157.273428 561.690975 157.273428zM743.267886 349.009333 511.824 504.004257 279.742115 350.471332l232.237885-153.631924L743.267886 349.009333 743.267886 349.009333zM462.102025 543.486237l-109.233946 84.099959L117.232195 472.361272l108.807946-85.023958L462.102025 543.486237 462.102025 543.486237zM97.219205 212.5764 342.712084 61.100475l119.593941 96.217953L221.639143 316.519349 97.219205 212.5764 97.219205 212.5764z" p-id="4282"></path><path d="M519.265996 654.201182 359.448075 775.833122 172.313168 651.794184l0 154.424924c0 20.67199 10.387995 38.939981 28.499986 50.116975l282.212861 159.500921c18.559991 10.488995 41.873979 11.098995 60.42697 0.486L824.017846 855.845083c17.101992-10.535995 27.724986-29.550985 27.724986-49.625976L851.742832 661.055179 677.720918 775.313123 519.265996 654.201182zM232.688138 764.252128l94.685953 62.752969c20.53599 13.579993 47.810976 12.641994 67.453967-2.238999l124.357939-94.622953 123.651939 94.489953c19.077991 14.707993 47.656976 15.857992 67.673967 2.352999l80.85196-53.568974-0.005 31.577984L514.309999 963.45103 232.688138 805.030108 232.688138 764.252128 232.688138 764.252128z" p-id="4283"></path></svg>